<?xml version="1.0" encoding="utf-8" standalone="no"?>
<!DOCTYPE svg PUBLIC "-//W3C//DTD SVG 1.1//EN"
  "http://www.w3.org/Graphics/SVG/1.1/DTD/svg11.dtd">
<!-- Created with matplotlib (http://matplotlib.org/) -->
<svg height="360pt" version="1.1" viewBox="0 0 432 360" width="432pt" xmlns="http://www.w3.org/2000/svg" xmlns:xlink="http://www.w3.org/1999/xlink">
 <defs>
  <style type="text/css">
*{stroke-linecap:butt;stroke-linejoin:round;}
  </style>
 </defs>
 <g id="figure_1">
  <g id="patch_1">
   <path d="
M0 360
L432 360
L432 0
L0 0
z
" style="fill:#ffffff;"/>
  </g>
  <g id="axes_1">
   <g id="patch_2">
    <path d="
M54 162.818
L388.8 162.818
L388.8 36
L54 36
z
" style="fill:#eaeaf2;"/>
   </g>
   <g id="matplotlib.axis_1">
    <g id="xtick_1">
     <g id="line2d_1">
      <path clip-path="url(#p30cea51f5a)" d="
M54 162.818
L54 36" style="fill:none;stroke:#ffffff;stroke-linecap:round;"/>
     </g>
     <g id="line2d_2">
      <defs>
       <path d="
M0 0
L0 0" id="m219da94a98" style="stroke:#262626;"/>
      </defs>
      <g>
       <use style="fill:#262626;stroke:#262626;" x="54.0" xlink:href="#m219da94a98" y="162.818181818"/>
      </g>
     </g>
     <g id="line2d_3">
      <g>
       <use style="fill:#262626;stroke:#262626;" x="54.0" xlink:href="#m219da94a98" y="36.0"/>
      </g>
     </g>
    </g>
    <g id="xtick_2">
     <g id="line2d_4">
      <path clip-path="url(#p30cea51f5a)" d="
M91.2 162.818
L91.2 36" style="fill:none;stroke:#ffffff;stroke-linecap:round;"/>
     </g>
     <g id="line2d_5">
      <g>
       <use style="fill:#262626;stroke:#262626;" x="91.2" xlink:href="#m219da94a98" y="162.818181818"/>
      </g>
     </g>
     <g id="line2d_6">
      <g>
       <use style="fill:#262626;stroke:#262626;" x="91.2" xlink:href="#m219da94a98" y="36.0"/>
      </g>
     </g>
    </g>
    <g id="xtick_3">
     <g id="line2d_7">
      <path clip-path="url(#p30cea51f5a)" d="
M128.4 162.818
L128.4 36" style="fill:none;stroke:#ffffff;stroke-linecap:round;"/>
     </g>
     <g id="line2d_8">
      <g>
       <use style="fill:#262626;stroke:#262626;" x="128.4" xlink:href="#m219da94a98" y="162.818181818"/>
      </g>
     </g>
     <g id="line2d_9">
      <g>
       <use style="fill:#262626;stroke:#262626;" x="128.4" xlink:href="#m219da94a98" y="36.0"/>
      </g>
     </g>
    </g>
    <g id="xtick_4">
     <g id="line2d_10">
      <path clip-path="url(#p30cea51f5a)" d="
M165.6 162.818
L165.6 36" style="fill:none;stroke:#ffffff;stroke-linecap:round;"/>
     </g>
     <g id="line2d_11">
      <g>
       <use style="fill:#262626;stroke:#262626;" x="165.6" xlink:href="#m219da94a98" y="162.818181818"/>
      </g>
     </g>
     <g id="line2d_12">
      <g>
       <use style="fill:#262626;stroke:#262626;" x="165.6" xlink:href="#m219da94a98" y="36.0"/>
      </g>
     </g>
    </g>
    <g id="xtick_5">
     <g id="line2d_13">
      <path clip-path="url(#p30cea51f5a)" d="
M202.8 162.818
L202.8 36" style="fill:none;stroke:#ffffff;stroke-linecap:round;"/>
     </g>
     <g id="line2d_14">
      <g>
       <use style="fill:#262626;stroke:#262626;" x="202.8" xlink:href="#m219da94a98" y="162.818181818"/>
      </g>
     </g>
     <g id="line2d_15">
      <g>
       <use style="fill:#262626;stroke:#262626;" x="202.8" xlink:href="#m219da94a98" y="36.0"/>
      </g>
     </g>
    </g>
    <g id="xtick_6">
     <g id="line2d_16">
      <path clip-path="url(#p30cea51f5a)" d="
M240 162.818
L240 36" style="fill:none;stroke:#ffffff;stroke-linecap:round;"/>
     </g>
     <g id="line2d_17">
      <g>
       <use style="fill:#262626;stroke:#262626;" x="240.0" xlink:href="#m219da94a98" y="162.818181818"/>
      </g>
     </g>
     <g id="line2d_18">
      <g>
       <use style="fill:#262626;stroke:#262626;" x="240.0" xlink:href="#m219da94a98" y="36.0"/>
      </g>
     </g>
    </g>
    <g id="xtick_7">
     <g id="line2d_19">
      <path clip-path="url(#p30cea51f5a)" d="
M277.2 162.818
L277.2 36" style="fill:none;stroke:#ffffff;stroke-linecap:round;"/>
     </g>
     <g id="line2d_20">
      <g>
       <use style="fill:#262626;stroke:#262626;" x="277.2" xlink:href="#m219da94a98" y="162.818181818"/>
      </g>
     </g>
     <g id="line2d_21">
      <g>
       <use style="fill:#262626;stroke:#262626;" x="277.2" xlink:href="#m219da94a98" y="36.0"/>
      </g>
     </g>
    </g>
    <g id="xtick_8">
     <g id="line2d_22">
      <path clip-path="url(#p30cea51f5a)" d="
M314.4 162.818
L314.4 36" style="fill:none;stroke:#ffffff;stroke-linecap:round;"/>
     </g>
     <g id="line2d_23">
      <g>
       <use style="fill:#262626;stroke:#262626;" x="314.4" xlink:href="#m219da94a98" y="162.818181818"/>
      </g>
     </g>
     <g id="line2d_24">
      <g>
       <use style="fill:#262626;stroke:#262626;" x="314.4" xlink:href="#m219da94a98" y="36.0"/>
      </g>
     </g>
    </g>
    <g id="xtick_9">
     <g id="line2d_25">
      <path clip-path="url(#p30cea51f5a)" d="
M351.6 162.818
L351.6 36" style="fill:none;stroke:#ffffff;stroke-linecap:round;"/>
     </g>
     <g id="line2d_26">
      <g>
       <use style="fill:#262626;stroke:#262626;" x="351.6" xlink:href="#m219da94a98" y="162.818181818"/>
      </g>
     </g>
     <g id="line2d_27">
      <g>
       <use style="fill:#262626;stroke:#262626;" x="351.6" xlink:href="#m219da94a98" y="36.0"/>
      </g>
     </g>
    </g>
    <g id="xtick_10">
     <g id="line2d_28">
      <path clip-path="url(#p30cea51f5a)" d="
M388.8 162.818
L388.8 36" style="fill:none;stroke:#ffffff;stroke-linecap:round;"/>
     </g>
     <g id="line2d_29">
      <g>
       <use style="fill:#262626;stroke:#262626;" x="388.8" xlink:href="#m219da94a98" y="162.818181818"/>
      </g>
     </g>
     <g id="line2d_30">
      <g>
       <use style="fill:#262626;stroke:#262626;" x="388.8" xlink:href="#m219da94a98" y="36.0"/>
      </g>
     </g>
    </g>
   </g>
   <g id="matplotlib.axis_2">
    <g id="ytick_1">
     <g id="line2d_31">
      <path clip-path="url(#p30cea51f5a)" d="
M54 161.032
L388.8 161.032" style="fill:none;stroke:#ffffff;stroke-linecap:round;"/>
     </g>
     <g id="line2d_32">
      <g>
       <use style="fill:#262626;stroke:#262626;" x="54.0" xlink:href="#m219da94a98" y="161.032010243"/>
      </g>
     </g>
     <g id="line2d_33">
      <g>
       <use style="fill:#262626;stroke:#262626;" x="388.8" xlink:href="#m219da94a98" y="161.032010243"/>
      </g>
     </g>
     <g id="text_1">
      <!-- 0 -->
      <defs>
       <path d="
M4.15625 35.2969
Q4.15625 48 6.76562 55.7344
Q9.375 63.4844 14.5156 67.6719
Q19.6719 71.875 27.4844 71.875
Q33.25 71.875 37.5938 69.5469
Q41.9375 67.2344 44.7656 62.8594
Q47.6094 58.5 49.2188 52.2188
Q50.8281 45.9531 50.8281 35.2969
Q50.8281 22.7031 48.2344 14.9688
Q45.6562 7.23438 40.5 3
Q35.3594 -1.21875 27.4844 -1.21875
Q17.1406 -1.21875 11.2344 6.20312
Q4.15625 15.1406 4.15625 35.2969
M13.1875 35.2969
Q13.1875 17.6719 17.3125 11.8281
Q21.4375 6 27.4844 6
Q33.5469 6 37.6719 11.8594
Q41.7969 17.7188 41.7969 35.2969
Q41.7969 52.9844 37.6719 58.7812
Q33.5469 64.5938 27.3906 64.5938
Q21.3438 64.5938 17.7188 59.4688
Q13.1875 52.9375 13.1875 35.2969" id="ArialMT-30"/>
      </defs>
      <g style="fill:#262626;" transform="translate(42.3328125 163.617166493)scale(0.1 -0.1)">
       <use xlink:href="#ArialMT-30"/>
      </g>
     </g>
    </g>
    <g id="ytick_2">
     <g id="line2d_34">
      <path clip-path="url(#p30cea51f5a)" d="
M54 143.17
L388.8 143.17" style="fill:none;stroke:#ffffff;stroke-linecap:round;"/>
     </g>
     <g id="line2d_35">
      <g>
       <use style="fill:#262626;stroke:#262626;" x="54.0" xlink:href="#m219da94a98" y="143.170294494"/>
      </g>
     </g>
     <g id="line2d_36">
      <g>
       <use style="fill:#262626;stroke:#262626;" x="388.8" xlink:href="#m219da94a98" y="143.170294494"/>
      </g>
     </g>
     <g id="text_2">
      <!-- 5 -->
      <defs>
       <path d="
M4.15625 18.75
L13.375 19.5312
Q14.4062 12.7969 18.1406 9.39062
Q21.875 6 27.1562 6
Q33.5 6 37.8906 10.7812
Q42.2812 15.5781 42.2812 23.4844
Q42.2812 31 38.0625 35.3438
Q33.8438 39.7031 27 39.7031
Q22.75 39.7031 19.3281 37.7656
Q15.9219 35.8438 13.9688 32.7656
L5.71875 33.8438
L12.6406 70.6094
L48.25 70.6094
L48.25 62.2031
L19.6719 62.2031
L15.8281 42.9688
Q22.2656 47.4688 29.3438 47.4688
Q38.7188 47.4688 45.1562 40.9688
Q51.6094 34.4688 51.6094 24.2656
Q51.6094 14.5469 45.9531 7.46875
Q39.0625 -1.21875 27.1562 -1.21875
Q17.3906 -1.21875 11.2031 4.25
Q5.03125 9.71875 4.15625 18.75" id="ArialMT-35"/>
      </defs>
      <g style="fill:#262626;" transform="translate(42.2546875 145.755450744)scale(0.1 -0.1)">
       <use xlink:href="#ArialMT-35"/>
      </g>
     </g>
    </g>
    <g id="ytick_3">
     <g id="line2d_37">
      <path clip-path="url(#p30cea51f5a)" d="
M54 125.309
L388.8 125.309" style="fill:none;stroke:#ffffff;stroke-linecap:round;"/>
     </g>
     <g id="line2d_38">
      <g>
       <use style="fill:#262626;stroke:#262626;" x="54.0" xlink:href="#m219da94a98" y="125.308578745"/>
      </g>
     </g>
     <g id="line2d_39">
      <g>
       <use style="fill:#262626;stroke:#262626;" x="388.8" xlink:href="#m219da94a98" y="125.308578745"/>
      </g>
     </g>
     <g id="text_3">
      <!-- 10 -->
      <defs>
       <path d="
M37.25 0
L28.4688 0
L28.4688 56
Q25.2969 52.9844 20.1406 49.9531
Q14.9844 46.9219 10.8906 45.4062
L10.8906 53.9062
Q18.2656 57.375 23.7812 62.2969
Q29.2969 67.2344 31.5938 71.875
L37.25 71.875
z
" id="ArialMT-31"/>
      </defs>
      <g style="fill:#262626;" transform="translate(37.4453125 127.893734995)scale(0.1 -0.1)">
       <use xlink:href="#ArialMT-31"/>
       <use x="55.615234375" xlink:href="#ArialMT-30"/>
      </g>
     </g>
    </g>
    <g id="ytick_4">
     <g id="line2d_40">
      <path clip-path="url(#p30cea51f5a)" d="
M54 107.447
L388.8 107.447" style="fill:none;stroke:#ffffff;stroke-linecap:round;"/>
     </g>
     <g id="line2d_41">
      <g>
       <use style="fill:#262626;stroke:#262626;" x="54.0" xlink:href="#m219da94a98" y="107.446862996"/>
      </g>
     </g>
     <g id="line2d_42">
      <g>
       <use style="fill:#262626;stroke:#262626;" x="388.8" xlink:href="#m219da94a98" y="107.446862996"/>
      </g>
     </g>
     <g id="text_4">
      <!-- 15 -->
      <g style="fill:#262626;" transform="translate(37.3671875 110.032019246)scale(0.1 -0.1)">
       <use xlink:href="#ArialMT-31"/>
       <use x="55.615234375" xlink:href="#ArialMT-35"/>
      </g>
     </g>
    </g>
    <g id="ytick_5">
     <g id="line2d_43">
      <path clip-path="url(#p30cea51f5a)" d="
M54 89.5851
L388.8 89.5851" style="fill:none;stroke:#ffffff;stroke-linecap:round;"/>
     </g>
     <g id="line2d_44">
      <g>
       <use style="fill:#262626;stroke:#262626;" x="54.0" xlink:href="#m219da94a98" y="89.5851472471"/>
      </g>
     </g>
     <g id="line2d_45">
      <g>
       <use style="fill:#262626;stroke:#262626;" x="388.8" xlink:href="#m219da94a98" y="89.5851472471"/>
      </g>
     </g>
     <g id="text_5">
      <!-- 20 -->
      <defs>
       <path d="
M50.3438 8.45312
L50.3438 0
L3.03125 0
Q2.9375 3.17188 4.04688 6.10938
Q5.85938 10.9375 9.82812 15.625
Q13.8125 20.3125 21.3438 26.4688
Q33.0156 36.0312 37.1094 41.625
Q41.2188 47.2188 41.2188 52.2031
Q41.2188 57.4219 37.4688 61
Q33.7344 64.5938 27.7344 64.5938
Q21.3906 64.5938 17.5781 60.7812
Q13.7656 56.9844 13.7188 50.25
L4.6875 51.1719
Q5.60938 61.2812 11.6562 66.5781
Q17.7188 71.875 27.9375 71.875
Q38.2344 71.875 44.2344 66.1562
Q50.25 60.4531 50.25 52
Q50.25 47.7031 48.4844 43.5469
Q46.7344 39.4062 42.6562 34.8125
Q38.5781 30.2188 29.1094 22.2188
Q21.1875 15.5781 18.9375 13.2031
Q16.7031 10.8438 15.2344 8.45312
z
" id="ArialMT-32"/>
      </defs>
      <g style="fill:#262626;" transform="translate(36.65 92.1703034971)scale(0.1 -0.1)">
       <use xlink:href="#ArialMT-32"/>
       <use x="55.615234375" xlink:href="#ArialMT-30"/>
      </g>
     </g>
    </g>
    <g id="ytick_6">
     <g id="line2d_46">
      <path clip-path="url(#p30cea51f5a)" d="
M54 71.7234
L388.8 71.7234" style="fill:none;stroke:#ffffff;stroke-linecap:round;"/>
     </g>
     <g id="line2d_47">
      <g>
       <use style="fill:#262626;stroke:#262626;" x="54.0" xlink:href="#m219da94a98" y="71.7234314981"/>
      </g>
     </g>
     <g id="line2d_48">
      <g>
       <use style="fill:#262626;stroke:#262626;" x="388.8" xlink:href="#m219da94a98" y="71.7234314981"/>
      </g>
     </g>
     <g id="text_6">
      <!-- 25 -->
      <g style="fill:#262626;" transform="translate(36.571875 74.3085877481)scale(0.1 -0.1)">
       <use xlink:href="#ArialMT-32"/>
       <use x="55.615234375" xlink:href="#ArialMT-35"/>
      </g>
     </g>
    </g>
    <g id="ytick_7">
     <g id="line2d_49">
      <path clip-path="url(#p30cea51f5a)" d="
M54 53.8617
L388.8 53.8617" style="fill:none;stroke:#ffffff;stroke-linecap:round;"/>
     </g>
     <g id="line2d_50">
      <g>
       <use style="fill:#262626;stroke:#262626;" x="54.0" xlink:href="#m219da94a98" y="53.861715749"/>
      </g>
     </g>
     <g id="line2d_51">
      <g>
       <use style="fill:#262626;stroke:#262626;" x="388.8" xlink:href="#m219da94a98" y="53.861715749"/>
      </g>
     </g>
     <g id="text_7">
      <!-- 30 -->
      <defs>
       <path d="
M4.20312 18.8906
L12.9844 20.0625
Q14.5 12.5938 18.1406 9.29688
Q21.7812 6 27 6
Q33.2031 6 37.4688 10.2969
Q41.75 14.5938 41.75 20.9531
Q41.75 27 37.7969 30.9219
Q33.8438 34.8594 27.7344 34.8594
Q25.25 34.8594 21.5312 33.8906
L22.5156 41.6094
Q23.3906 41.5 23.9219 41.5
Q29.5469 41.5 34.0312 44.4219
Q38.5312 47.3594 38.5312 53.4688
Q38.5312 58.2969 35.25 61.4688
Q31.9844 64.6562 26.8125 64.6562
Q21.6875 64.6562 18.2656 61.4219
Q14.8438 58.2031 13.875 51.7656
L5.07812 53.3281
Q6.6875 62.1562 12.3906 67.0156
Q18.1094 71.875 26.6094 71.875
Q32.4688 71.875 37.3906 69.3594
Q42.3281 66.8438 44.9375 62.5
Q47.5625 58.1562 47.5625 53.2656
Q47.5625 48.6406 45.0625 44.8281
Q42.5781 41.0156 37.7031 38.7656
Q44.0469 37.3125 47.5625 32.6875
Q51.0781 28.0781 51.0781 21.1406
Q51.0781 11.7656 44.2344 5.25
Q37.4062 -1.26562 26.9531 -1.26562
Q17.5312 -1.26562 11.2969 4.34375
Q5.07812 9.96875 4.20312 18.8906" id="ArialMT-33"/>
      </defs>
      <g style="fill:#262626;" transform="translate(36.7765625 56.446871999)scale(0.1 -0.1)">
       <use xlink:href="#ArialMT-33"/>
       <use x="55.615234375" xlink:href="#ArialMT-30"/>
      </g>
     </g>
    </g>
    <g id="ytick_8">
     <g id="line2d_52">
      <path clip-path="url(#p30cea51f5a)" d="
M54 36
L388.8 36" style="fill:none;stroke:#ffffff;stroke-linecap:round;"/>
     </g>
     <g id="line2d_53">
      <g>
       <use style="fill:#262626;stroke:#262626;" x="54.0" xlink:href="#m219da94a98" y="36.0"/>
      </g>
     </g>
     <g id="line2d_54">
      <g>
       <use style="fill:#262626;stroke:#262626;" x="388.8" xlink:href="#m219da94a98" y="36.0"/>
      </g>
     </g>
     <g id="text_8">
      <!-- 35 -->
      <g style="fill:#262626;" transform="translate(36.6984375 38.58515625)scale(0.1 -0.1)">
       <use xlink:href="#ArialMT-33"/>
       <use x="55.615234375" xlink:href="#ArialMT-35"/>
      </g>
     </g>
    </g>
    <g id="text_9">
     <!-- Cores (thousands) -->
     <defs>
      <path d="
M40.4375 6.39062
Q35.5469 2.25 31.0312 0.53125
Q26.5156 -1.17188 21.3438 -1.17188
Q12.7969 -1.17188 8.20312 3
Q3.60938 7.17188 3.60938 13.6719
Q3.60938 17.4844 5.34375 20.625
Q7.07812 23.7812 9.89062 25.6875
Q12.7031 27.5938 16.2188 28.5625
Q18.7969 29.25 24.0312 29.8906
Q34.6719 31.1562 39.7031 32.9062
Q39.75 34.7188 39.75 35.2031
Q39.75 40.5781 37.25 42.7812
Q33.8906 45.75 27.25 45.75
Q21.0469 45.75 18.0938 43.5781
Q15.1406 41.4062 13.7188 35.8906
L5.125 37.0625
Q6.29688 42.5781 8.98438 45.9688
Q11.6719 49.3594 16.75 51.1875
Q21.8281 53.0312 28.5156 53.0312
Q35.1562 53.0312 39.2969 51.4688
Q43.4531 49.9062 45.4062 47.5312
Q47.3594 45.1719 48.1406 41.5469
Q48.5781 39.3125 48.5781 33.4531
L48.5781 21.7344
Q48.5781 9.46875 49.1406 6.21875
Q49.7031 2.98438 51.375 0
L42.1875 0
Q40.8281 2.73438 40.4375 6.39062
M39.7031 26.0312
Q34.9062 24.0781 25.3438 22.7031
Q19.9219 21.9219 17.6719 20.9375
Q15.4375 19.9688 14.2031 18.0938
Q12.9844 16.2188 12.9844 13.9219
Q12.9844 10.4062 15.6406 8.0625
Q18.3125 5.71875 23.4375 5.71875
Q28.5156 5.71875 32.4688 7.9375
Q36.4219 10.1562 38.2812 14.0156
Q39.7031 17 39.7031 22.7969
z
" id="ArialMT-61"/>
      <path d="
M12.3594 -21.0469
L6.0625 -21.0469
Q20.6562 2.39062 20.6562 25.875
Q20.6562 35.0625 18.5625 44.0938
Q16.8906 51.4219 13.9219 58.1562
Q12.0156 62.5469 6.0625 72.7969
L12.3594 72.7969
Q21.5312 60.5469 25.9219 48.1875
Q29.6875 37.5469 29.6875 25.9219
Q29.6875 12.75 24.625 0.4375
Q19.5781 -11.8594 12.3594 -21.0469" id="ArialMT-29"/>
      <path d="
M42.0938 16.7031
L51.1719 15.5781
Q49.0312 7.625 43.2188 3.21875
Q37.4062 -1.17188 28.375 -1.17188
Q17 -1.17188 10.3281 5.82812
Q3.65625 12.8438 3.65625 25.4844
Q3.65625 38.5781 10.3906 45.7969
Q17.1406 53.0312 27.875 53.0312
Q38.2812 53.0312 44.875 45.9531
Q51.4688 38.875 51.4688 26.0312
Q51.4688 25.25 51.4219 23.6875
L12.75 23.6875
Q13.2344 15.1406 17.5781 10.5938
Q21.9219 6.0625 28.4219 6.0625
Q33.25 6.0625 36.6719 8.59375
Q40.0938 11.1406 42.0938 16.7031
M13.2344 30.9062
L42.1875 30.9062
Q41.6094 37.4531 38.875 40.7188
Q34.6719 45.7969 27.9844 45.7969
Q21.9219 45.7969 17.7969 41.75
Q13.6719 37.7031 13.2344 30.9062" id="ArialMT-65"/>
      <path d="
M40.2344 0
L40.2344 6.54688
Q35.2969 -1.17188 25.7344 -1.17188
Q19.5312 -1.17188 14.3281 2.25
Q9.125 5.67188 6.26562 11.7969
Q3.42188 17.9219 3.42188 25.875
Q3.42188 33.6406 6 39.9688
Q8.59375 46.2969 13.7656 49.6562
Q18.9531 53.0312 25.3438 53.0312
Q30.0312 53.0312 33.6875 51.0469
Q37.3594 49.0781 39.6562 45.9062
L39.6562 71.5781
L48.3906 71.5781
L48.3906 0
z

M12.4531 25.875
Q12.4531 15.9219 16.6406 10.9844
Q20.8438 6.0625 26.5625 6.0625
Q32.3281 6.0625 36.3438 10.7656
Q40.375 15.4844 40.375 25.1406
Q40.375 35.7969 36.2656 40.7656
Q32.1719 45.75 26.1719 45.75
Q20.3125 45.75 16.375 40.9688
Q12.4531 36.1875 12.4531 25.875" id="ArialMT-64"/>
      <path d="
M25.7812 7.85938
L27.0469 0.09375
Q23.3438 -0.6875 20.4062 -0.6875
Q15.625 -0.6875 12.9844 0.828125
Q10.3594 2.34375 9.28125 4.8125
Q8.20312 7.28125 8.20312 15.1875
L8.20312 45.0156
L1.76562 45.0156
L1.76562 51.8594
L8.20312 51.8594
L8.20312 64.7031
L16.9375 69.9688
L16.9375 51.8594
L25.7812 51.8594
L25.7812 45.0156
L16.9375 45.0156
L16.9375 14.7031
Q16.9375 10.9375 17.4062 9.85938
Q17.875 8.79688 18.9219 8.15625
Q19.9688 7.51562 21.9219 7.51562
Q23.3906 7.51562 25.7812 7.85938" id="ArialMT-74"/>
      <path d="
M40.5781 0
L40.5781 7.625
Q34.5156 -1.17188 24.125 -1.17188
Q19.5312 -1.17188 15.5469 0.578125
Q11.5781 2.34375 9.64062 5
Q7.71875 7.67188 6.9375 11.5312
Q6.39062 14.1094 6.39062 19.7344
L6.39062 51.8594
L15.1875 51.8594
L15.1875 23.0938
Q15.1875 16.2188 15.7188 13.8125
Q16.5469 10.3594 19.2344 8.375
Q21.9219 6.39062 25.875 6.39062
Q29.8281 6.39062 33.2969 8.42188
Q36.7656 10.4531 38.2031 13.9375
Q39.6562 17.4375 39.6562 24.0781
L39.6562 51.8594
L48.4375 51.8594
L48.4375 0
z
" id="ArialMT-75"/>
      <path d="
M58.7969 25.0938
L68.2656 22.7031
Q65.2812 11.0312 57.5469 4.90625
Q49.8125 -1.21875 38.625 -1.21875
Q27.0469 -1.21875 19.7969 3.48438
Q12.5469 8.20312 8.76562 17.1406
Q4.98438 26.0781 4.98438 36.3281
Q4.98438 47.5156 9.25 55.8281
Q13.5312 64.1562 21.4062 68.4688
Q29.2969 72.7969 38.7656 72.7969
Q49.5156 72.7969 56.8281 67.3281
Q64.1562 61.8594 67.0469 51.9531
L57.7188 49.75
Q55.2188 57.5625 50.4844 61.125
Q45.75 64.7031 38.5781 64.7031
Q30.3281 64.7031 24.7812 60.7344
Q19.2344 56.7812 16.9844 50.1094
Q14.75 43.4531 14.75 36.375
Q14.75 27.25 17.4062 20.4375
Q20.0625 13.625 25.6719 10.25
Q31.2969 6.89062 37.8438 6.89062
Q45.7969 6.89062 51.3125 11.4688
Q56.8438 16.0625 58.7969 25.0938" id="ArialMT-43"/>
      <path d="
M6.59375 0
L6.59375 71.5781
L15.375 71.5781
L15.375 45.9062
Q21.5312 53.0312 30.9062 53.0312
Q36.6719 53.0312 40.9219 50.75
Q45.1719 48.4844 47 44.4844
Q48.8281 40.4844 48.8281 32.8594
L48.8281 0
L40.0469 0
L40.0469 32.8594
Q40.0469 39.4531 37.1875 42.4531
Q34.3281 45.4531 29.1094 45.4531
Q25.2031 45.4531 21.75 43.4219
Q18.3125 41.4062 16.8438 37.9375
Q15.375 34.4688 15.375 28.375
L15.375 0
z
" id="ArialMT-68"/>
      <path d="
M6.5 0
L6.5 51.8594
L14.4062 51.8594
L14.4062 44
Q17.4375 49.5156 20 51.2656
Q22.5625 53.0312 25.6406 53.0312
Q30.0781 53.0312 34.6719 50.2031
L31.6406 42.0469
Q28.4219 43.9531 25.2031 43.9531
Q22.3125 43.9531 20.0156 42.2188
Q17.7188 40.4844 16.75 37.4062
Q15.2812 32.7188 15.2812 27.1562
L15.2812 0
z
" id="ArialMT-72"/>
      <path d="
M3.07812 15.4844
L11.7656 16.8438
Q12.5 11.625 15.8438 8.84375
Q19.1875 6.0625 25.2031 6.0625
Q31.25 6.0625 34.1719 8.51562
Q37.1094 10.9844 37.1094 14.3125
Q37.1094 17.2812 34.5156 19
Q32.7188 20.1719 25.5312 21.9688
Q15.875 24.4219 12.1406 26.2031
Q8.40625 27.9844 6.46875 31.125
Q4.54688 34.2812 4.54688 38.0938
Q4.54688 41.5469 6.125 44.5
Q7.71875 47.4688 10.4531 49.4219
Q12.5 50.9219 16.0312 51.9688
Q19.5781 53.0312 23.6406 53.0312
Q29.7344 53.0312 34.3438 51.2656
Q38.9688 49.5156 41.1562 46.5
Q43.3594 43.5 44.1875 38.4844
L35.5938 37.3125
Q35.0156 41.3125 32.2031 43.5469
Q29.3906 45.7969 24.2656 45.7969
Q18.2188 45.7969 15.625 43.7969
Q13.0312 41.7969 13.0312 39.1094
Q13.0312 37.4062 14.1094 36.0312
Q15.1875 34.625 17.4844 33.6875
Q18.7969 33.2031 25.25 31.4531
Q34.5781 28.9531 38.25 27.3594
Q41.9375 25.7812 44.0312 22.75
Q46.1406 19.7344 46.1406 15.2344
Q46.1406 10.8438 43.5781 6.95312
Q41.0156 3.07812 36.1719 0.953125
Q31.3438 -1.17188 25.25 -1.17188
Q15.1406 -1.17188 9.84375 3.03125
Q4.54688 7.23438 3.07812 15.4844" id="ArialMT-73"/>
      <path d="
M3.32812 25.9219
Q3.32812 40.3281 11.3281 47.2656
Q18.0156 53.0312 27.6406 53.0312
Q38.3281 53.0312 45.1094 46.0156
Q51.9062 39.0156 51.9062 26.6562
Q51.9062 16.6562 48.9062 10.9062
Q45.9062 5.17188 40.1562 2
Q34.4219 -1.17188 27.6406 -1.17188
Q16.75 -1.17188 10.0312 5.8125
Q3.32812 12.7969 3.32812 25.9219
M12.3594 25.9219
Q12.3594 15.9688 16.7031 11.0156
Q21.0469 6.0625 27.6406 6.0625
Q34.1875 6.0625 38.5312 11.0312
Q42.875 16.0156 42.875 26.2188
Q42.875 35.8438 38.5 40.7969
Q34.125 45.75 27.6406 45.75
Q21.0469 45.75 16.7031 40.8125
Q12.3594 35.8906 12.3594 25.9219" id="ArialMT-6f"/>
      <path d="
M6.59375 0
L6.59375 51.8594
L14.5 51.8594
L14.5 44.4844
Q20.2188 53.0312 31 53.0312
Q35.6875 53.0312 39.625 51.3438
Q43.5625 49.6562 45.5156 46.9219
Q47.4688 44.1875 48.25 40.4375
Q48.7344 37.9844 48.7344 31.8906
L48.7344 0
L39.9375 0
L39.9375 31.5469
Q39.9375 36.9219 38.9062 39.5781
Q37.8906 42.2344 35.2812 43.8125
Q32.6719 45.4062 29.1562 45.4062
Q23.5312 45.4062 19.4531 41.8438
Q15.375 38.2812 15.375 28.3281
L15.375 0
z
" id="ArialMT-6e"/>
      <path d="
M23.3906 -21.0469
Q16.1094 -11.8594 11.0781 0.4375
Q6.0625 12.75 6.0625 25.9219
Q6.0625 37.5469 9.8125 48.1875
Q14.2031 60.5469 23.3906 72.7969
L29.6875 72.7969
Q23.7812 62.6406 21.875 58.2969
Q18.8906 51.5625 17.1875 44.2344
Q15.0938 35.1094 15.0938 25.875
Q15.0938 2.39062 29.6875 -21.0469
z
" id="ArialMT-28"/>
      <path id="ArialMT-20"/>
     </defs>
     <g style="fill:#262626;" transform="translate(28.83578125 152.640028409)rotate(-90.0)scale(0.13 -0.13)">
      <use xlink:href="#ArialMT-43"/>
      <use x="72.216796875" xlink:href="#ArialMT-6f"/>
      <use x="127.83203125" xlink:href="#ArialMT-72"/>
      <use x="161.1328125" xlink:href="#ArialMT-65"/>
      <use x="216.748046875" xlink:href="#ArialMT-73"/>
      <use x="266.748046875" xlink:href="#ArialMT-20"/>
      <use x="294.53125" xlink:href="#ArialMT-28"/>
      <use x="327.83203125" xlink:href="#ArialMT-74"/>
      <use x="355.615234375" xlink:href="#ArialMT-68"/>
      <use x="411.23046875" xlink:href="#ArialMT-6f"/>
      <use x="466.845703125" xlink:href="#ArialMT-75"/>
      <use x="522.4609375" xlink:href="#ArialMT-73"/>
      <use x="572.4609375" xlink:href="#ArialMT-61"/>
      <use x="628.076171875" xlink:href="#ArialMT-6e"/>
      <use x="683.69140625" xlink:href="#ArialMT-64"/>
      <use x="739.306640625" xlink:href="#ArialMT-73"/>
      <use x="789.306640625" xlink:href="#ArialMT-29"/>
     </g>
    </g>
   </g>
   <g id="line2d_55">
    <path clip-path="url(#p30cea51f5a)" d="
M54 160.918
L60.7586 160.834
L61.4344 160.573
L61.7723 160.675
L62.1103 160.336
L62.4482 160.457
L62.7861 160.328
L64.4758 160.342
L64.8137 160.356
L65.4895 159.883
L69.5447 159.889
L71.2343 159.965
L71.9102 158.773
L72.924 158.614
L73.2619 158.146
L74.2757 158.175
L76.6412 158.119
L76.9791 155.577
L77.317 155.333
L79.0067 155.316
L82.048 155.369
L82.3859 154.914
L82.7239 152.961
L83.0618 152.374
L83.7377 152.457
L84.7514 152.481
L85.0894 152.308
L85.7652 149.439
L86.1032 149.639
L87.1169 149.6
L88.4686 149.625
L88.8066 148.504
L89.1445 146.497
L89.4824 146.806
L90.1583 146.746
L92.8617 146.687
L93.1996 146.992
L93.5376 145.706
L94.2134 160.461
L94.5514 160.583
L98.6065 160.575
L99.9582 160.543
L100.296 160.738
L100.634 159.643
L100.972 157.862
L101.31 157.049
L101.648 155.539
L101.986 155.281
L103 155.316
L122.261 155.415
L122.599 154.696
L122.937 151.517
L123.275 150.88
L123.613 143.721
L123.951 131.572
L124.289 127.816
L124.627 118.13
L124.965 104.732
L125.303 103.999
L125.641 100.552
L125.979 91.8745
L126.317 92.644
L126.655 92.4084
L126.992 92.6898
L127.33 93.2634
L127.668 94.5639
L128.344 98.7031
L128.682 99.7403
L129.02 99.7592
L129.358 99.5402
L130.034 89.7491
L130.372 87.1873
L130.71 86.6487
L131.048 87.8504
L131.723 160.704
L132.061 160.907
L135.441 160.919
L136.792 160.803
L137.13 157.369
L137.468 155.213
L137.806 154.891
L138.144 151.38
L138.482 149.454
L138.82 149.774
L139.496 149.717
L141.185 149.676
L141.523 149.916
L141.861 148.525
L142.199 144.706
L142.537 143.764
L143.213 143.939
L143.551 143.732
L143.889 144.079
L144.227 134.709
L144.565 131.176
L144.903 119.872
L145.241 121.744
L145.916 116.012
L146.254 124.971
L146.592 125.728
L146.93 123.93
L147.268 124.465
L147.606 121.025
L147.944 120.356
L148.62 119.524
L148.958 115.843
L149.296 106.389
L149.634 108.273
L149.972 113.095
L150.309 115.52
L150.985 114.517
L151.661 113.336
L151.999 112.185
L152.337 108.932
L152.675 103.916
L153.013 103.219
L153.351 103.745
L153.689 110.214
L154.027 113.228
L154.365 111.297
L154.703 108.481
L155.04 108.086
L156.054 107.689
L156.392 107.237
L156.73 107.138
L157.068 107.896
L157.406 109.653
L157.744 110.041
L158.082 109.168
L158.42 108.996
L159.096 109.02
L159.434 108.836
L159.771 107.812
L160.109 104.053
L160.447 98.4265
L160.785 102.427
L161.123 108.775
L161.461 110.221
L162.137 107.704
L162.475 105.487
L162.813 104.904
L163.151 104.882
L163.489 104.498
L163.827 104.311
L164.165 104.37
L164.502 104.121
L164.84 103.411
L165.516 102.483
L165.854 102.374
L166.53 102.388
L166.868 102.114
L167.544 101.088
L167.882 100.91
L168.895 102.785
L169.571 102.713
L169.909 102.779
L170.247 101.822
L170.585 101.826
L171.599 101.368
L175.316 101.36
L178.695 101.319
L179.033 101.599
L179.371 102.288
L180.047 103.008
L180.723 102.962
L189.847 102.922
L190.185 103.197
L190.523 104.743
L190.861 108.583
L191.199 110.825
L191.537 110.436
L192.213 110.503
L193.564 110.529
L193.902 110.344
L194.24 108.465
L194.578 109.483
L194.916 113.178
L195.254 104.827
L195.93 99.5611
L196.268 98.7698
L196.606 98.8003
L197.281 92.9487
L197.619 82.4663
L197.957 83.5933
L198.633 86.9788
L199.309 87.0678
L201.337 87.1075
L202.012 90.1358
L202.35 89.8781
L203.026 89.9257
L204.378 89.9491
L204.716 89.7586
L205.054 91.0068
L205.392 95.7733
L206.068 115.452
L206.405 113.874
L206.743 114.221
L207.419 114.164
L208.433 114.073
L208.771 114.744
L209.109 117.749
L209.447 119.624
L209.785 120.716
L210.123 120.53
L211.136 120.563
L211.812 120.586
L212.15 120.351
L212.826 110.384
L213.164 112.365
L213.502 112.292
L213.84 112.395
L214.178 111.82
L214.516 109.281
L214.854 102.347
L215.192 101.229
L216.205 101.204
L216.543 102.315
L216.881 106.446
L217.219 108.489
L217.557 108.156
L218.233 108.216
L219.585 108.193
L219.923 108.59
L220.261 106.862
L220.598 102.319
L220.936 102.446
L221.612 102.391
L223.302 102.41
L223.64 102.248
L223.978 103.391
L224.316 98.4542
L224.654 90.489
L224.992 91.0735
L225.329 89.3496
L225.667 89.2578
L226.005 88.9413
L226.681 88.8936
L227.019 88.9733
L227.357 87.9581
L228.371 73.4687
L228.709 74.6872
L229.047 65.5419
L229.385 61.6607
L229.723 52.1103
L230.06 50.7069
L230.736 50.8535
L231.074 50.7652
L231.412 51.2273
L232.426 58.2524
L232.764 57.8791
L233.102 58.4307
L233.44 54.4164
L233.778 52.8794
L238.171 53.0391
L238.509 52.7445
L238.847 56.5153
L239.185 65.2024
L239.522 63.9412
L239.86 64.2712
L240.536 64.21
L242.226 64.1272
L242.564 65.1773
L242.902 67.9248
L243.24 67.6898
L243.915 67.7477
L246.281 67.8544
L246.619 68.2603
L246.957 68.1819
L247.295 68.2675
L247.633 67.9898
L247.971 68.9818
L248.309 61.8377
L248.646 60.2092
L248.984 60.494
L249.66 48.6698
L249.998 49.4779
L250.336 51.6617
L250.674 52.6716
L251.012 52.7859
L253.377 52.7186
L253.715 53.1573
L254.053 54.7996
L254.391 54.5524
L255.067 54.6018
L256.757 54.6134
L257.095 54.5102
L257.433 55.254
L257.771 58.8625
L258.108 59.3124
L259.798 59.2917
L268.246 59.2965
L268.922 59.6551
L270.612 59.6346
L272.639 59.6639
L273.315 59.7458
L283.115 59.7489
L294.267 59.7129
L294.605 60.1582
L295.281 71.0684
L295.618 70.4843
L295.956 70.64
L296.97 70.6085
L298.322 70.6191
L298.66 71.3692
L298.998 72.5694
L299.336 72.4019
L300.349 72.4384
L313.529 72.5231
L313.867 71.8635
L314.542 60.3586
L314.88 61.1565
L315.556 60.9328
L315.894 61.2489
L316.232 56.8464
L316.57 49.5749
L316.908 49.5539
L317.246 47.5065
L317.584 46.533
L317.922 46.6228
L319.611 46.6027
L331.777 46.6047
L332.791 46.94
L334.818 46.9609
L335.156 46.7241
L341.915 46.7053
L342.253 46.7504
L342.928 46.603
L343.266 48.8186
L343.604 80.318
L343.942 92.5883
L344.28 91.3792
L344.618 91.7104
L345.294 91.6499
L346.646 91.5669
L346.984 93.5835
L347.321 122.747
L347.997 155.918
L348.335 156.509
L349.011 156.571
L350.701 156.686
L351.039 158.343
L352.39 158.403
L354.418 158.493
L354.756 159.886
L355.094 159.738
L356.108 159.775
L358.135 159.809
L358.473 160.561
L358.811 160.819
L360.839 160.804
L361.852 160.809
L362.19 160.926
L363.542 160.88
L363.88 160.164
L364.218 159.841
L364.894 159.888
L378.411 159.855
L379.087 160.257
L380.776 160.217
L381.452 160.575
L381.79 160.389
L382.466 160.506
L382.804 160.357
L383.142 160.612
L383.48 160.276
L383.818 160.658
L386.521 160.803
L387.873 160.804
L388.211 160.924
L388.887 160.919
L388.887 160.919" style="fill:none;stroke:#4c72b0;stroke-linecap:round;stroke-width:1.75;"/>
   </g>
   <g id="patch_3">
    <path d="
M54 36
L388.8 36" style="fill:none;"/>
   </g>
   <g id="patch_4">
    <path d="
M388.8 162.818
L388.8 36" style="fill:none;"/>
   </g>
   <g id="patch_5">
    <path d="
M54 162.818
L388.8 162.818" style="fill:none;"/>
   </g>
   <g id="patch_6">
    <path d="
M54 162.818
L54 36" style="fill:none;"/>
   </g>
   <g id="text_10">
    <!-- Active Cores Over Time -->
    <defs>
     <path d="
M40.4375 19
L49.0781 17.875
Q47.6562 8.9375 41.8125 3.875
Q35.9844 -1.17188 27.4844 -1.17188
Q16.8438 -1.17188 10.375 5.78125
Q3.90625 12.75 3.90625 25.7344
Q3.90625 34.125 6.6875 40.4219
Q9.46875 46.7344 15.1562 49.875
Q20.8438 53.0312 27.5469 53.0312
Q35.9844 53.0312 41.3594 48.75
Q46.7344 44.4844 48.25 36.625
L39.7031 35.2969
Q38.4844 40.5312 35.375 43.1562
Q32.2812 45.7969 27.875 45.7969
Q21.2344 45.7969 17.0781 41.0312
Q12.9375 36.2812 12.9375 25.9844
Q12.9375 15.5312 16.9375 10.7969
Q20.9531 6.0625 27.3906 6.0625
Q32.5625 6.0625 36.0312 9.23438
Q39.5 12.4062 40.4375 19" id="ArialMT-63"/>
     <path d="
M-0.140625 0
L27.3438 71.5781
L37.5469 71.5781
L66.8438 0
L56.0625 0
L47.7031 21.6875
L17.7812 21.6875
L9.90625 0
z

M20.5156 29.3906
L44.7812 29.3906
L37.3125 49.2188
Q33.8906 58.25 32.2344 64.0625
Q30.8594 57.1719 28.375 50.3906
z
" id="ArialMT-41"/>
     <path d="
M6.64062 61.4688
L6.64062 71.5781
L15.4375 71.5781
L15.4375 61.4688
z

M6.64062 0
L6.64062 51.8594
L15.4375 51.8594
L15.4375 0
z
" id="ArialMT-69"/>
     <path d="
M25.9219 0
L25.9219 63.1406
L2.34375 63.1406
L2.34375 71.5781
L59.0781 71.5781
L59.0781 63.1406
L35.4062 63.1406
L35.4062 0
z
" id="ArialMT-54"/>
     <path d="
M6.59375 0
L6.59375 51.8594
L14.4531 51.8594
L14.4531 44.5781
Q16.8906 48.3906 20.9375 50.7031
Q25 53.0312 30.1719 53.0312
Q35.9375 53.0312 39.625 50.6406
Q43.3125 48.25 44.8281 43.9531
Q50.9844 53.0312 60.8438 53.0312
Q68.5625 53.0312 72.7031 48.75
Q76.8594 44.4844 76.8594 35.5938
L76.8594 0
L68.1094 0
L68.1094 32.6719
Q68.1094 37.9375 67.25 40.25
Q66.4062 42.5781 64.1562 43.9844
Q61.9219 45.4062 58.8906 45.4062
Q53.4219 45.4062 49.7969 41.7656
Q46.1875 38.1406 46.1875 30.125
L46.1875 0
L37.4062 0
L37.4062 33.6875
Q37.4062 39.5469 35.25 42.4688
Q33.1094 45.4062 28.2188 45.4062
Q24.5156 45.4062 21.3594 43.4531
Q18.2188 41.5 16.7969 37.7344
Q15.375 33.9844 15.375 26.9062
L15.375 0
z
" id="ArialMT-6d"/>
     <path d="
M21 0
L1.26562 51.8594
L10.5469 51.8594
L21.6875 20.7969
Q23.4844 15.7656 25 10.3594
Q26.1719 14.4531 28.2656 20.2188
L39.7969 51.8594
L48.8281 51.8594
L29.2031 0
z
" id="ArialMT-76"/>
     <path d="
M4.82812 34.8594
Q4.82812 52.6875 14.3906 62.7656
Q23.9688 72.8594 39.1094 72.8594
Q49.0312 72.8594 56.9844 68.1094
Q64.9375 63.375 69.1094 54.9062
Q73.2969 46.4375 73.2969 35.6875
Q73.2969 24.8125 68.8906 16.2188
Q64.5 7.625 56.4375 3.20312
Q48.3906 -1.21875 39.0625 -1.21875
Q28.9531 -1.21875 20.9844 3.65625
Q13.0312 8.54688 8.92188 16.9844
Q4.82812 25.4375 4.82812 34.8594
M14.5938 34.7188
Q14.5938 21.7812 21.5469 14.3281
Q28.5156 6.89062 39.0156 6.89062
Q49.7031 6.89062 56.6094 14.4062
Q63.5312 21.9219 63.5312 35.75
Q63.5312 44.4844 60.5781 51
Q57.625 57.5156 51.9219 61.1094
Q46.2344 64.7031 39.1562 64.7031
Q29.1094 64.7031 21.8438 57.7812
Q14.5938 50.875 14.5938 34.7188" id="ArialMT-4f"/>
    </defs>
    <g style="fill:#262626;" transform="translate(153.03421875 31.0)scale(0.13 -0.13)">
     <use xlink:href="#ArialMT-41"/>
     <use x="66.69921875" xlink:href="#ArialMT-63"/>
     <use x="116.69921875" xlink:href="#ArialMT-74"/>
     <use x="144.482421875" xlink:href="#ArialMT-69"/>
     <use x="166.69921875" xlink:href="#ArialMT-76"/>
     <use x="216.69921875" xlink:href="#ArialMT-65"/>
     <use x="272.314453125" xlink:href="#ArialMT-20"/>
     <use x="300.09765625" xlink:href="#ArialMT-43"/>
     <use x="372.314453125" xlink:href="#ArialMT-6f"/>
     <use x="427.9296875" xlink:href="#ArialMT-72"/>
     <use x="461.23046875" xlink:href="#ArialMT-65"/>
     <use x="516.845703125" xlink:href="#ArialMT-73"/>
     <use x="566.845703125" xlink:href="#ArialMT-20"/>
     <use x="594.62890625" xlink:href="#ArialMT-4f"/>
     <use x="672.412109375" xlink:href="#ArialMT-76"/>
     <use x="722.412109375" xlink:href="#ArialMT-65"/>
     <use x="778.02734375" xlink:href="#ArialMT-72"/>
     <use x="811.328125" xlink:href="#ArialMT-20"/>
     <use x="837.361328125" xlink:href="#ArialMT-54"/>
     <use x="894.6953125" xlink:href="#ArialMT-69"/>
     <use x="916.912109375" xlink:href="#ArialMT-6d"/>
     <use x="1000.21289062" xlink:href="#ArialMT-65"/>
    </g>
   </g>
  </g>
  <g id="axes_2">
   <g id="patch_7">
    <path d="
M54 315
L388.8 315
L388.8 188.182
L54 188.182
z
" style="fill:#eaeaf2;"/>
   </g>
   <g id="matplotlib.axis_3">
    <g id="xtick_11">
     <g id="line2d_56">
      <path clip-path="url(#p867992c7a5)" d="
M54 315
L54 188.182" style="fill:none;stroke:#ffffff;stroke-linecap:round;"/>
     </g>
     <g id="line2d_57">
      <g>
       <use style="fill:#262626;stroke:#262626;" x="54.0" xlink:href="#m219da94a98" y="315.0"/>
      </g>
     </g>
     <g id="line2d_58">
      <g>
       <use style="fill:#262626;stroke:#262626;" x="54.0" xlink:href="#m219da94a98" y="188.181818182"/>
      </g>
     </g>
     <g id="text_11">
      <!-- 0 -->
      <g style="fill:#262626;" transform="translate(51.66640625 329.1578125)scale(0.1 -0.1)">
       <use xlink:href="#ArialMT-30"/>
      </g>
     </g>
    </g>
    <g id="xtick_12">
     <g id="line2d_59">
      <path clip-path="url(#p867992c7a5)" d="
M91.2 315
L91.2 188.182" style="fill:none;stroke:#ffffff;stroke-linecap:round;"/>
     </g>
     <g id="line2d_60">
      <g>
       <use style="fill:#262626;stroke:#262626;" x="91.2" xlink:href="#m219da94a98" y="315.0"/>
      </g>
     </g>
     <g id="line2d_61">
      <g>
       <use style="fill:#262626;stroke:#262626;" x="91.2" xlink:href="#m219da94a98" y="188.181818182"/>
      </g>
     </g>
     <g id="text_12">
      <!-- 10 -->
      <g style="fill:#262626;" transform="translate(86.42265625 329.1578125)scale(0.1 -0.1)">
       <use xlink:href="#ArialMT-31"/>
       <use x="55.615234375" xlink:href="#ArialMT-30"/>
      </g>
     </g>
    </g>
    <g id="xtick_13">
     <g id="line2d_62">
      <path clip-path="url(#p867992c7a5)" d="
M128.4 315
L128.4 188.182" style="fill:none;stroke:#ffffff;stroke-linecap:round;"/>
     </g>
     <g id="line2d_63">
      <g>
       <use style="fill:#262626;stroke:#262626;" x="128.4" xlink:href="#m219da94a98" y="315.0"/>
      </g>
     </g>
     <g id="line2d_64">
      <g>
       <use style="fill:#262626;stroke:#262626;" x="128.4" xlink:href="#m219da94a98" y="188.181818182"/>
      </g>
     </g>
     <g id="text_13">
      <!-- 20 -->
      <g style="fill:#262626;" transform="translate(123.225 329.1578125)scale(0.1 -0.1)">
       <use xlink:href="#ArialMT-32"/>
       <use x="55.615234375" xlink:href="#ArialMT-30"/>
      </g>
     </g>
    </g>
    <g id="xtick_14">
     <g id="line2d_65">
      <path clip-path="url(#p867992c7a5)" d="
M165.6 315
L165.6 188.182" style="fill:none;stroke:#ffffff;stroke-linecap:round;"/>
     </g>
     <g id="line2d_66">
      <g>
       <use style="fill:#262626;stroke:#262626;" x="165.6" xlink:href="#m219da94a98" y="315.0"/>
      </g>
     </g>
     <g id="line2d_67">
      <g>
       <use style="fill:#262626;stroke:#262626;" x="165.6" xlink:href="#m219da94a98" y="188.181818182"/>
      </g>
     </g>
     <g id="text_14">
      <!-- 30 -->
      <g style="fill:#262626;" transform="translate(160.48828125 329.1578125)scale(0.1 -0.1)">
       <use xlink:href="#ArialMT-33"/>
       <use x="55.615234375" xlink:href="#ArialMT-30"/>
      </g>
     </g>
    </g>
    <g id="xtick_15">
     <g id="line2d_68">
      <path clip-path="url(#p867992c7a5)" d="
M202.8 315
L202.8 188.182" style="fill:none;stroke:#ffffff;stroke-linecap:round;"/>
     </g>
     <g id="line2d_69">
      <g>
       <use style="fill:#262626;stroke:#262626;" x="202.8" xlink:href="#m219da94a98" y="315.0"/>
      </g>
     </g>
     <g id="line2d_70">
      <g>
       <use style="fill:#262626;stroke:#262626;" x="202.8" xlink:href="#m219da94a98" y="188.181818182"/>
      </g>
     </g>
     <g id="text_15">
      <!-- 40 -->
      <defs>
       <path d="
M32.3281 0
L32.3281 17.1406
L1.26562 17.1406
L1.26562 25.2031
L33.9375 71.5781
L41.1094 71.5781
L41.1094 25.2031
L50.7812 25.2031
L50.7812 17.1406
L41.1094 17.1406
L41.1094 0
z

M32.3281 25.2031
L32.3281 57.4688
L9.90625 25.2031
z
" id="ArialMT-34"/>
      </defs>
      <g style="fill:#262626;" transform="translate(197.54140625 329.1578125)scale(0.1 -0.1)">
       <use xlink:href="#ArialMT-34"/>
       <use x="55.615234375" xlink:href="#ArialMT-30"/>
      </g>
     </g>
    </g>
    <g id="xtick_16">
     <g id="line2d_71">
      <path clip-path="url(#p867992c7a5)" d="
M240 315
L240 188.182" style="fill:none;stroke:#ffffff;stroke-linecap:round;"/>
     </g>
     <g id="line2d_72">
      <g>
       <use style="fill:#262626;stroke:#262626;" x="240.0" xlink:href="#m219da94a98" y="315.0"/>
      </g>
     </g>
     <g id="line2d_73">
      <g>
       <use style="fill:#262626;stroke:#262626;" x="240.0" xlink:href="#m219da94a98" y="188.181818182"/>
      </g>
     </g>
     <g id="text_16">
      <!-- 50 -->
      <g style="fill:#262626;" transform="translate(234.8859375 329.1578125)scale(0.1 -0.1)">
       <use xlink:href="#ArialMT-35"/>
       <use x="55.615234375" xlink:href="#ArialMT-30"/>
      </g>
     </g>
    </g>
    <g id="xtick_17">
     <g id="line2d_74">
      <path clip-path="url(#p867992c7a5)" d="
M277.2 315
L277.2 188.182" style="fill:none;stroke:#ffffff;stroke-linecap:round;"/>
     </g>
     <g id="line2d_75">
      <g>
       <use style="fill:#262626;stroke:#262626;" x="277.2" xlink:href="#m219da94a98" y="315.0"/>
      </g>
     </g>
     <g id="line2d_76">
      <g>
       <use style="fill:#262626;stroke:#262626;" x="277.2" xlink:href="#m219da94a98" y="188.181818182"/>
      </g>
     </g>
     <g id="text_17">
      <!-- 60 -->
      <defs>
       <path d="
M49.75 54.0469
L41.0156 53.375
Q39.8438 58.5469 37.7031 60.8906
Q34.125 64.6562 28.9062 64.6562
Q24.7031 64.6562 21.5312 62.3125
Q17.3906 59.2812 14.9844 53.4688
Q12.5938 47.6562 12.5 36.9219
Q15.6719 41.75 20.2656 44.0938
Q24.8594 46.4375 29.8906 46.4375
Q38.6719 46.4375 44.8438 39.9688
Q51.0312 33.5 51.0312 23.25
Q51.0312 16.5 48.125 10.7188
Q45.2188 4.9375 40.1406 1.85938
Q35.0625 -1.21875 28.6094 -1.21875
Q17.625 -1.21875 10.6875 6.85938
Q3.76562 14.9375 3.76562 33.5
Q3.76562 54.25 11.4219 63.6719
Q18.1094 71.875 29.4375 71.875
Q37.8906 71.875 43.2812 67.1406
Q48.6875 62.4062 49.75 54.0469
M13.875 23.1875
Q13.875 18.6562 15.7969 14.5
Q17.7188 10.3594 21.1875 8.17188
Q24.6562 6 28.4688 6
Q34.0312 6 38.0312 10.4844
Q42.0469 14.9844 42.0469 22.7031
Q42.0469 30.125 38.0781 34.3906
Q34.125 38.6719 28.125 38.6719
Q22.1719 38.6719 18.0156 34.3906
Q13.875 30.125 13.875 23.1875" id="ArialMT-36"/>
      </defs>
      <g style="fill:#262626;" transform="translate(272.06640625 329.1578125)scale(0.1 -0.1)">
       <use xlink:href="#ArialMT-36"/>
       <use x="55.615234375" xlink:href="#ArialMT-30"/>
      </g>
     </g>
    </g>
    <g id="xtick_18">
     <g id="line2d_77">
      <path clip-path="url(#p867992c7a5)" d="
M314.4 315
L314.4 188.182" style="fill:none;stroke:#ffffff;stroke-linecap:round;"/>
     </g>
     <g id="line2d_78">
      <g>
       <use style="fill:#262626;stroke:#262626;" x="314.4" xlink:href="#m219da94a98" y="315.0"/>
      </g>
     </g>
     <g id="line2d_79">
      <g>
       <use style="fill:#262626;stroke:#262626;" x="314.4" xlink:href="#m219da94a98" y="188.181818182"/>
      </g>
     </g>
     <g id="text_18">
      <!-- 70 -->
      <defs>
       <path d="
M4.73438 62.2031
L4.73438 70.6562
L51.0781 70.6562
L51.0781 63.8125
Q44.2344 56.5469 37.5156 44.4844
Q30.8125 32.4219 27.1562 19.6719
Q24.5156 10.6875 23.7812 0
L14.75 0
Q14.8906 8.45312 18.0625 20.4062
Q21.2344 32.375 27.1719 43.4844
Q33.1094 54.5938 39.7969 62.2031
z
" id="ArialMT-37"/>
      </defs>
      <g style="fill:#262626;" transform="translate(309.31484375 329.1578125)scale(0.1 -0.1)">
       <use xlink:href="#ArialMT-37"/>
       <use x="55.615234375" xlink:href="#ArialMT-30"/>
      </g>
     </g>
    </g>
    <g id="xtick_19">
     <g id="line2d_80">
      <path clip-path="url(#p867992c7a5)" d="
M351.6 315
L351.6 188.182" style="fill:none;stroke:#ffffff;stroke-linecap:round;"/>
     </g>
     <g id="line2d_81">
      <g>
       <use style="fill:#262626;stroke:#262626;" x="351.6" xlink:href="#m219da94a98" y="315.0"/>
      </g>
     </g>
     <g id="line2d_82">
      <g>
       <use style="fill:#262626;stroke:#262626;" x="351.6" xlink:href="#m219da94a98" y="188.181818182"/>
      </g>
     </g>
     <g id="text_19">
      <!-- 80 -->
      <defs>
       <path d="
M17.6719 38.8125
Q12.2031 40.8281 9.5625 44.5312
Q6.9375 48.25 6.9375 53.4219
Q6.9375 61.2344 12.5469 66.5469
Q18.1719 71.875 27.4844 71.875
Q36.8594 71.875 42.5781 66.4219
Q48.2969 60.9844 48.2969 53.1719
Q48.2969 48.1875 45.6719 44.5
Q43.0625 40.8281 37.75 38.8125
Q44.3438 36.6719 47.7812 31.875
Q51.2188 27.0938 51.2188 20.4531
Q51.2188 11.2812 44.7188 5.03125
Q38.2344 -1.21875 27.6406 -1.21875
Q17.0469 -1.21875 10.5469 5.04688
Q4.04688 11.3281 4.04688 20.7031
Q4.04688 27.6875 7.59375 32.3906
Q11.1406 37.1094 17.6719 38.8125
M15.9219 53.7188
Q15.9219 48.6406 19.1875 45.4062
Q22.4688 42.1875 27.6875 42.1875
Q32.7656 42.1875 36.0156 45.375
Q39.2656 48.5781 39.2656 53.2188
Q39.2656 58.0625 35.9062 61.3594
Q32.5625 64.6562 27.5938 64.6562
Q22.5625 64.6562 19.2344 61.4219
Q15.9219 58.2031 15.9219 53.7188
M13.0938 20.6562
Q13.0938 16.8906 14.875 13.375
Q16.6562 9.85938 20.1719 7.92188
Q23.6875 6 27.7344 6
Q34.0312 6 38.125 10.0469
Q42.2344 14.1094 42.2344 20.3594
Q42.2344 26.7031 38.0156 30.8594
Q33.7969 35.0156 27.4375 35.0156
Q21.2344 35.0156 17.1562 30.9062
Q13.0938 26.8125 13.0938 20.6562" id="ArialMT-38"/>
      </defs>
      <g style="fill:#262626;" transform="translate(346.48046875 329.1578125)scale(0.1 -0.1)">
       <use xlink:href="#ArialMT-38"/>
       <use x="55.615234375" xlink:href="#ArialMT-30"/>
      </g>
     </g>
    </g>
    <g id="xtick_20">
     <g id="line2d_83">
      <path clip-path="url(#p867992c7a5)" d="
M388.8 315
L388.8 188.182" style="fill:none;stroke:#ffffff;stroke-linecap:round;"/>
     </g>
     <g id="line2d_84">
      <g>
       <use style="fill:#262626;stroke:#262626;" x="388.8" xlink:href="#m219da94a98" y="315.0"/>
      </g>
     </g>
     <g id="line2d_85">
      <g>
       <use style="fill:#262626;stroke:#262626;" x="388.8" xlink:href="#m219da94a98" y="188.181818182"/>
      </g>
     </g>
     <g id="text_20">
      <!-- 90 -->
      <defs>
       <path d="
M5.46875 16.5469
L13.9219 17.3281
Q14.9844 11.375 18.0156 8.6875
Q21.0469 6 25.7812 6
Q29.8281 6 32.875 7.85938
Q35.9375 9.71875 37.8906 12.8125
Q39.8438 15.9219 41.1562 21.1875
Q42.4844 26.4688 42.4844 31.9375
Q42.4844 32.5156 42.4375 33.6875
Q39.7969 29.5 35.2344 26.875
Q30.6719 24.2656 25.3438 24.2656
Q16.4531 24.2656 10.2969 30.7031
Q4.15625 37.1562 4.15625 47.7031
Q4.15625 58.5938 10.5781 65.2344
Q17 71.875 26.6562 71.875
Q33.6406 71.875 39.4219 68.1094
Q45.2188 64.3594 48.2188 57.3906
Q51.2188 50.4375 51.2188 37.25
Q51.2188 23.5312 48.2344 15.4062
Q45.2656 7.28125 39.375 3.03125
Q33.5 -1.21875 25.5938 -1.21875
Q17.1875 -1.21875 11.8594 3.4375
Q6.54688 8.10938 5.46875 16.5469
M41.4531 48.1406
Q41.4531 55.7188 37.4219 60.1562
Q33.4062 64.5938 27.7344 64.5938
Q21.875 64.5938 17.5312 59.8125
Q13.1875 55.0312 13.1875 47.4062
Q13.1875 40.5781 17.3125 36.2969
Q21.4375 32.0312 27.4844 32.0312
Q33.5938 32.0312 37.5156 36.2969
Q41.4531 40.5781 41.4531 48.1406" id="ArialMT-39"/>
      </defs>
      <g style="fill:#262626;" transform="translate(383.6859375 329.1578125)scale(0.1 -0.1)">
       <use xlink:href="#ArialMT-39"/>
       <use x="55.615234375" xlink:href="#ArialMT-30"/>
      </g>
     </g>
    </g>
    <g id="text_21">
     <!-- Hours -->
     <defs>
      <path d="
M8.01562 0
L8.01562 71.5781
L17.4844 71.5781
L17.4844 42.1875
L54.6875 42.1875
L54.6875 71.5781
L64.1562 71.5781
L64.1562 0
L54.6875 0
L54.6875 33.7344
L17.4844 33.7344
L17.4844 0
z
" id="ArialMT-48"/>
     </defs>
     <g style="fill:#262626;" transform="translate(204.834140625 345.45046875)scale(0.13 -0.13)">
      <use xlink:href="#ArialMT-48"/>
      <use x="72.216796875" xlink:href="#ArialMT-6f"/>
      <use x="127.83203125" xlink:href="#ArialMT-75"/>
      <use x="183.447265625" xlink:href="#ArialMT-72"/>
      <use x="216.748046875" xlink:href="#ArialMT-73"/>
     </g>
    </g>
   </g>
   <g id="matplotlib.axis_4">
    <g id="ytick_9">
     <g id="line2d_86">
      <path clip-path="url(#p867992c7a5)" d="
M54 314.399
L388.8 314.399" style="fill:none;stroke:#ffffff;stroke-linecap:round;"/>
     </g>
     <g id="line2d_87">
      <g>
       <use style="fill:#262626;stroke:#262626;" x="54.0" xlink:href="#m219da94a98" y="314.398965963"/>
      </g>
     </g>
     <g id="line2d_88">
      <g>
       <use style="fill:#262626;stroke:#262626;" x="388.8" xlink:href="#m219da94a98" y="314.398965963"/>
      </g>
     </g>
     <g id="text_22">
      <!-- 0 -->
      <g style="fill:#262626;" transform="translate(42.3328125 316.984122213)scale(0.1 -0.1)">
       <use xlink:href="#ArialMT-30"/>
      </g>
     </g>
    </g>
    <g id="ytick_10">
     <g id="line2d_89">
      <path clip-path="url(#p867992c7a5)" d="
M54 290.358
L388.8 290.358" style="fill:none;stroke:#ffffff;stroke-linecap:round;"/>
     </g>
     <g id="line2d_90">
      <g>
       <use style="fill:#262626;stroke:#262626;" x="54.0" xlink:href="#m219da94a98" y="290.357604481"/>
      </g>
     </g>
     <g id="line2d_91">
      <g>
       <use style="fill:#262626;stroke:#262626;" x="388.8" xlink:href="#m219da94a98" y="290.357604481"/>
      </g>
     </g>
     <g id="text_23">
      <!-- 20 -->
      <g style="fill:#262626;" transform="translate(36.65 292.942760731)scale(0.1 -0.1)">
       <use xlink:href="#ArialMT-32"/>
       <use x="55.615234375" xlink:href="#ArialMT-30"/>
      </g>
     </g>
    </g>
    <g id="ytick_11">
     <g id="line2d_92">
      <path clip-path="url(#p867992c7a5)" d="
M54 266.316
L388.8 266.316" style="fill:none;stroke:#ffffff;stroke-linecap:round;"/>
     </g>
     <g id="line2d_93">
      <g>
       <use style="fill:#262626;stroke:#262626;" x="54.0" xlink:href="#m219da94a98" y="266.316242999"/>
      </g>
     </g>
     <g id="line2d_94">
      <g>
       <use style="fill:#262626;stroke:#262626;" x="388.8" xlink:href="#m219da94a98" y="266.316242999"/>
      </g>
     </g>
     <g id="text_24">
      <!-- 40 -->
      <g style="fill:#262626;" transform="translate(36.4828125 268.901399249)scale(0.1 -0.1)">
       <use xlink:href="#ArialMT-34"/>
       <use x="55.615234375" xlink:href="#ArialMT-30"/>
      </g>
     </g>
    </g>
    <g id="ytick_12">
     <g id="line2d_95">
      <path clip-path="url(#p867992c7a5)" d="
M54 242.275
L388.8 242.275" style="fill:none;stroke:#ffffff;stroke-linecap:round;"/>
     </g>
     <g id="line2d_96">
      <g>
       <use style="fill:#262626;stroke:#262626;" x="54.0" xlink:href="#m219da94a98" y="242.274881517"/>
      </g>
     </g>
     <g id="line2d_97">
      <g>
       <use style="fill:#262626;stroke:#262626;" x="388.8" xlink:href="#m219da94a98" y="242.274881517"/>
      </g>
     </g>
     <g id="text_25">
      <!-- 60 -->
      <g style="fill:#262626;" transform="translate(36.7328125 244.860037767)scale(0.1 -0.1)">
       <use xlink:href="#ArialMT-36"/>
       <use x="55.615234375" xlink:href="#ArialMT-30"/>
      </g>
     </g>
    </g>
    <g id="ytick_13">
     <g id="line2d_98">
      <path clip-path="url(#p867992c7a5)" d="
M54 218.234
L388.8 218.234" style="fill:none;stroke:#ffffff;stroke-linecap:round;"/>
     </g>
     <g id="line2d_99">
      <g>
       <use style="fill:#262626;stroke:#262626;" x="54.0" xlink:href="#m219da94a98" y="218.233520034"/>
      </g>
     </g>
     <g id="line2d_100">
      <g>
       <use style="fill:#262626;stroke:#262626;" x="388.8" xlink:href="#m219da94a98" y="218.233520034"/>
      </g>
     </g>
     <g id="text_26">
      <!-- 80 -->
      <g style="fill:#262626;" transform="translate(36.7609375 220.818676284)scale(0.1 -0.1)">
       <use xlink:href="#ArialMT-38"/>
       <use x="55.615234375" xlink:href="#ArialMT-30"/>
      </g>
     </g>
    </g>
    <g id="ytick_14">
     <g id="line2d_101">
      <path clip-path="url(#p867992c7a5)" d="
M54 194.192
L388.8 194.192" style="fill:none;stroke:#ffffff;stroke-linecap:round;"/>
     </g>
     <g id="line2d_102">
      <g>
       <use style="fill:#262626;stroke:#262626;" x="54.0" xlink:href="#m219da94a98" y="194.192158552"/>
      </g>
     </g>
     <g id="line2d_103">
      <g>
       <use style="fill:#262626;stroke:#262626;" x="388.8" xlink:href="#m219da94a98" y="194.192158552"/>
      </g>
     </g>
     <g id="text_27">
      <!-- 100 -->
      <g style="fill:#262626;" transform="translate(31.884375 196.777314802)scale(0.1 -0.1)">
       <use xlink:href="#ArialMT-31"/>
       <use x="55.615234375" xlink:href="#ArialMT-30"/>
       <use x="111.23046875" xlink:href="#ArialMT-30"/>
      </g>
     </g>
    </g>
    <g id="text_28">
     <!-- Cores (thousands) -->
     <g style="fill:#262626;" transform="translate(24.14828125 304.821846591)rotate(-90.0)scale(0.13 -0.13)">
      <use xlink:href="#ArialMT-43"/>
      <use x="72.216796875" xlink:href="#ArialMT-6f"/>
      <use x="127.83203125" xlink:href="#ArialMT-72"/>
      <use x="161.1328125" xlink:href="#ArialMT-65"/>
      <use x="216.748046875" xlink:href="#ArialMT-73"/>
      <use x="266.748046875" xlink:href="#ArialMT-20"/>
      <use x="294.53125" xlink:href="#ArialMT-28"/>
      <use x="327.83203125" xlink:href="#ArialMT-74"/>
      <use x="355.615234375" xlink:href="#ArialMT-68"/>
      <use x="411.23046875" xlink:href="#ArialMT-6f"/>
      <use x="466.845703125" xlink:href="#ArialMT-75"/>
      <use x="522.4609375" xlink:href="#ArialMT-73"/>
      <use x="572.4609375" xlink:href="#ArialMT-61"/>
      <use x="628.076171875" xlink:href="#ArialMT-6e"/>
      <use x="683.69140625" xlink:href="#ArialMT-64"/>
      <use x="739.306640625" xlink:href="#ArialMT-73"/>
      <use x="789.306640625" xlink:href="#ArialMT-29"/>
     </g>
    </g>
   </g>
   <g id="line2d_104">
    <path clip-path="url(#p867992c7a5)" d="
M54 314.36
L57.72 314.36
L57.72 314.36
L57.72 314.36
L57.72 314.322
L57.72 314.322
L57.72 314.322
L57.72 314.284
L57.72 314.284
L57.72 314.284
L57.72 314.245
L57.72 314.207
L61.44 314.168
L61.44 314.168
L61.44 314.014
L61.44 314.014
L68.88 313.86
L68.88 313.86
L68.88 313.476
L68.88 313.476
L72.6 313.476
L72.6 313.437
L72.6 313.283
L72.6 313.283
L76.32 313.283
L76.32 313.283
L76.32 312.322
L76.32 312.322
L80.04 312.322
L80.04 312.322
L80.04 311.36
L80.04 311.36
L83.76 311.36
L83.76 311.36
L83.76 310.398
L83.76 310.398
L87.48 310.398
L87.48 310.398
L87.48 309.437
L87.48 309.437
L98.64 309.437
L98.64 309.437
L98.64 307.667
L98.64 307.667
L120.96 307.667
L120.96 307.667
L120.96 298.051
L124.68 294.358
L124.68 286.511
L124.68 286.511
L128.4 286.511
L128.4 286.511
L128.4 282.01
L128.4 282.01
L135.84 282.01
L135.84 282.01
L135.84 278.241
L135.84 278.241
L139.56 278.241
L139.56 278.241
L139.56 276.279
L139.56 276.279
L143.28 276.279
L143.28 276.279
L143.28 265.739
L147 265.701
L147 265.701
L147 260.046
L150.72 260.046
L150.72 255.969
L150.72 255.969
L154.44 255.315
L154.44 254.046
L158.16 253.738
L158.16 250.545
L158.16 250.545
L161.88 250.122
L161.88 248.16
L165.6 247.929
L165.6 247.468
L165.6 247.468
L169.32 247.468
L169.32 247.468
L169.32 247.006
L169.32 247.006
L191.64 247.006
L191.64 247.006
L191.64 246.083
L195.36 242.813
L195.36 236.505
L195.36 236.505
L210.24 236.466
L210.24 236.466
L210.24 233.12
L210.24 233.12
L213.96 233.12
L213.96 229.389
L213.96 229.389
L217.68 229.389
L217.68 229.389
L217.68 227.388
L217.68 227.388
L221.4 227.388
L221.4 227.388
L221.4 223.58
L221.4 223.58
L225.12 223.119
L225.12 217.503
L228.84 217.503
L228.84 209.886
L228.84 209.886
L232.56 209.886
L232.56 209.886
L232.56 208.155
L232.56 208.155
L247.44 208.155
L247.44 208.155
L247.44 201.693
L247.44 201.693
L310.68 201.693
L310.68 201.693
L310.68 200.308
L314.4 197.846
L314.4 197.846
L314.4 193
L314.4 193
L362.76 192.923
L362.76 192.923
L362.76 192.577
L362.76 192.577
L381.36 192.577
L381.36 191.961
L381.36 191.961
L388.8 191.961
L388.8 191.961" style="fill:none;stroke:#4c72b0;stroke-linecap:round;stroke-width:1.75;"/>
   </g>
   <g id="patch_8">
    <path d="
M54 188.182
L388.8 188.182" style="fill:none;"/>
   </g>
   <g id="patch_9">
    <path d="
M388.8 315
L388.8 188.182" style="fill:none;"/>
   </g>
   <g id="patch_10">
    <path d="
M54 315
L388.8 315" style="fill:none;"/>
   </g>
   <g id="patch_11">
    <path d="
M54 315
L54 188.182" style="fill:none;"/>
   </g>
   <g id="text_29">
    <!-- Cumulative Cores Over Time -->
    <defs>
     <path d="
M6.39062 0
L6.39062 71.5781
L15.1875 71.5781
L15.1875 0
z
" id="ArialMT-6c"/>
    </defs>
    <g style="fill:#262626;" transform="translate(138.2325 183.181818182)scale(0.13 -0.13)">
     <use xlink:href="#ArialMT-43"/>
     <use x="72.216796875" xlink:href="#ArialMT-75"/>
     <use x="127.83203125" xlink:href="#ArialMT-6d"/>
     <use x="211.1328125" xlink:href="#ArialMT-75"/>
     <use x="266.748046875" xlink:href="#ArialMT-6c"/>
     <use x="288.96484375" xlink:href="#ArialMT-61"/>
     <use x="344.580078125" xlink:href="#ArialMT-74"/>
     <use x="372.36328125" xlink:href="#ArialMT-69"/>
     <use x="394.580078125" xlink:href="#ArialMT-76"/>
     <use x="444.580078125" xlink:href="#ArialMT-65"/>
     <use x="500.1953125" xlink:href="#ArialMT-20"/>
     <use x="527.978515625" xlink:href="#ArialMT-43"/>
     <use x="600.1953125" xlink:href="#ArialMT-6f"/>
     <use x="655.810546875" xlink:href="#ArialMT-72"/>
     <use x="689.111328125" xlink:href="#ArialMT-65"/>
     <use x="744.7265625" xlink:href="#ArialMT-73"/>
     <use x="794.7265625" xlink:href="#ArialMT-20"/>
     <use x="822.509765625" xlink:href="#ArialMT-4f"/>
     <use x="900.29296875" xlink:href="#ArialMT-76"/>
     <use x="950.29296875" xlink:href="#ArialMT-65"/>
     <use x="1005.90820312" xlink:href="#ArialMT-72"/>
     <use x="1039.20898438" xlink:href="#ArialMT-20"/>
     <use x="1065.2421875" xlink:href="#ArialMT-54"/>
     <use x="1122.57617188" xlink:href="#ArialMT-69"/>
     <use x="1144.79296875" xlink:href="#ArialMT-6d"/>
     <use x="1228.09375" xlink:href="#ArialMT-65"/>
    </g>
   </g>
  </g>
 </g>
 <defs>
  <clipPath id="p867992c7a5">
   <rect height="126.818181818" width="334.8" x="54.0" y="188.181818182"/>
  </clipPath>
  <clipPath id="p30cea51f5a">
   <rect height="126.818181818" width="334.8" x="54.0" y="36.0"/>
  </clipPath>
 </defs>
</svg>
